<?xml version="1.0" encoding="utf-8"?>
<!-- Generator: Adobe Illustrator 25.4.1, SVG Export Plug-In . SVG Version: 6.00 Build 0)  -->
<svg version="1.1" id="Layer_1" xmlns="http://www.w3.org/2000/svg" xmlns:xlink="http://www.w3.org/1999/xlink" x="0px" y="0px"
	 viewBox="0 0 192 192" style="enable-background:new 0 0 192 192;" xml:space="preserve">
<style type="text/css">
	.st0{fill:#FFFFFF;}
	.st1{fill:url(#SVGID_1_);}
	.st2{fill:url(#SVGID_00000063634793931487226220000005865822015731087747_);}
</style>
<path class="st0" d="M115.02,81.83c-0.43,0.5-0.91,0.96-1.37,1.42c-26.56,26.74-53.12,53.48-79.71,80.19
	c-1.06,1.06-2.38,1.85-3.12,2.41c-0.26,0-0.5-0.02-0.74-0.05l-0.36-0.35l-3.28-3.26l-0.03-0.03c0-0.51,0.12-1.03,0.38-1.53
	c0.48-0.93,1.23-1.75,1.98-2.5c26.61-26.69,53.24-53.36,79.86-80.03c0.52-0.52,1.03-1.09,1.64-1.49c1.62-1.08,3.33-1.16,4.71,0.31
	C116.42,78.45,116.44,80.2,115.02,81.83z"/>
<linearGradient id="SVGID_1_" gradientUnits="userSpaceOnUse" x1="28.3155" y1="164.0688" x2="134.1803" y2="58.204">
	<stop  offset="0" style="stop-color:#059696"/>
	<stop  offset="1" style="stop-color:#136680"/>
</linearGradient>
<path class="st1" d="M138.53,62.56c-5.72,3.92-5.72,3.92-4.28,10.2c0.14,0.63,0.29,1.25,0.43,1.89c0.55,2.55,1.09,5.11,1.71,8.01
	c-3.67-0.81-6.99-1.49-10.28-2.31c-0.4-0.1-0.72-0.85-0.93-1.36c-0.56-1.35-1.04-2.72-1.58-4.18c-2.46,1.42-4.86,3.62-7.47,1.16
	c-2.83-2.65-0.44-5.18,0.9-7.72c-1-0.37-1.87-0.83-2.8-1.01c-2.15-0.43-3.03-1.71-3.32-3.83c-0.36-2.57-1.05-5.1-1.65-7.85
	c0.73,0.11,1.1,0.14,1.47,0.22c4.16,0.92,8.31,1.89,12.47,2.74c0.72,0.15,1.81,0.1,2.24-0.33c1.39-1.4,2.56-3.04,3.81-4.58
	C102.58,30.05,55.8,27.9,26.04,59.9C-3.06,91.2,1.7,136.78,26.41,162.17l0.01,0.01l0.02,0.02c0,0,0.73-1.61,1.31-2.19
	c27.28-27.24,54.58-54.45,81.88-81.66c0.55-0.55,1.07-1.13,1.68-1.6c1.14-0.87,2.33-0.73,3.36,0.17c1.1,0.97,1.38,2.2,0.56,3.47
	c-0.45,0.69-1.1,1.26-1.69,1.86c-27.21,27.3-54.42,54.61-81.66,81.88c-0.58,0.58-1.44,0.9-2.17,1.34
	c16.06,15.93,41.8,25.05,67.85,18.69c30.67-7.49,50.1-27.14,56.88-58C159.63,102.64,153.66,81.33,138.53,62.56z M37.52,133.88
	c0.15-0.55,0.82-0.97,1.28-1.42c20.91-20.87,41.83-41.74,62.74-62.61c2.08-2.07,3.61-2.43,4.96-1.16c1.4,1.32,1.05,2.98-1.07,5.11
	c-20.86,20.92-41.72,41.84-62.6,62.74c-0.83,0.83-1.87,1.44-3.04,2.32c-0.99-0.82-2.07-1.3-2.42-2.1
	C37.01,135.96,37.26,134.8,37.52,133.88z M123.16,89.21c-0.34,0.39-0.71,0.75-1.08,1.11c-20.87,20.92-41.74,41.84-62.63,62.74
	c-0.83,0.83-1.87,1.45-2.45,1.89c-2.68,0.01-4.13-2.21-3.16-4.08c0.38-0.73,0.97-1.37,1.55-1.95
	c20.91-20.88,41.83-41.74,62.75-62.61c0.41-0.41,0.81-0.85,1.29-1.17c1.27-0.85,2.62-0.91,3.7,0.24
	C124.26,86.57,124.28,87.93,123.16,89.21z"/>
<linearGradient id="SVGID_00000133502786506909861580000005387529632616806536_" gradientUnits="userSpaceOnUse" x1="118.0091" y1="73.8118" x2="185.7987" y2="6.0222">
	<stop  offset="0" style="stop-color:#136680"/>
	<stop  offset="1" style="stop-color:#262362"/>
</linearGradient>
<path style="fill:url(#SVGID_00000133502786506909861580000005387529632616806536_);" d="M155.76,44.81
	c-0.61,0.43-1.04,0.68-1.42,0.99c-7.71,6.3-15.39,12.62-23.13,18.89c-1.12,0.91-1.35,1.77-1,3.15c0.89,3.56,1.59,7.16,2.43,11.03
	c-1.54-0.33-2.93-0.51-4.23-0.95c-0.48-0.16-0.87-0.89-1.09-1.44c-0.83-2.08-1.58-4.19-2.41-6.44c-1.67,1.25-3.11,2.44-4.68,3.42
	c-0.59,0.37-1.49,0.22-2.25,0.31c0.12-0.72,0.03-1.56,0.4-2.12c1.01-1.56,2.2-3,3.47-4.68c-1.94-0.72-3.69-1.56-5.53-2.01
	c-1.87-0.46-2.65-1.55-2.86-3.31c-0.08-0.7-0.26-1.39-0.45-2.4c3.26,0.7,6.42,1.16,9.44,2.08c2.59,0.79,4.12,0.26,5.83-1.94
	c5.64-7.24,11.57-14.25,17.38-21.35c0.44-0.54,0.87-1.08,1.48-1.85c-0.85-0.33-1.48-0.6-2.12-0.83c-6.86-2.48-13.72-4.93-20.56-7.46
	c-0.69-0.26-1.63-0.84-1.77-1.44c-1.15-4.62-2.14-9.28-3.23-14.15c0.65,0.05,1.07,0.03,1.47,0.12c12.29,2.71,24.57,5.41,36.85,8.16
	c1.15,0.26,2.08,0.26,3-0.64c0.68-0.67,1.56-1.15,2.39-1.63c6.52-3.82,13.04-7.65,19.58-11.43c0.84-0.49,1.82-0.73,2.74-1.09
	c0.17,0.14,0.34,0.28,0.51,0.42c-0.23,0.8-0.32,1.68-0.72,2.38c-4.1,7.11-8.04,14.31-12.49,21.19c-1.45,2.23-1.61,3.96-1.07,6.33
	c2.69,11.76,5.25,23.55,7.85,35.34c0.04,0.18,0.01,0.38,0.01,0.83c-1.07-0.19-2.12-0.33-3.16-0.55c-3.34-0.72-6.67-1.53-10.02-2.18
	c-1.36-0.27-2.06-0.9-2.52-2.22c-2.39-6.82-4.88-13.6-7.34-20.4C156.3,46.29,156.06,45.64,155.76,44.81z"/>
<path class="st0" d="M39.78,138.86c-0.99-0.81-2.07-1.3-2.42-2.1c-0.35-0.8-0.1-1.96,0.16-2.88c0.15-0.55,0.82-0.97,1.28-1.42
	c20.91-20.87,41.83-41.74,62.74-62.61c2.07-2.07,3.61-2.42,4.96-1.16c1.4,1.32,1.05,2.99-1.07,5.11
	c-20.86,20.92-41.72,41.84-62.6,62.74C41.99,137.37,40.95,137.98,39.78,138.86z"/>
<path class="st0" d="M57.01,154.95c-2.68,0.01-4.12-2.21-3.15-4.08c0.38-0.72,0.97-1.37,1.55-1.95
	c20.91-20.88,41.83-41.75,62.75-62.61c0.41-0.41,0.81-0.85,1.29-1.17c1.27-0.84,2.62-0.91,3.7,0.24c1.12,1.19,1.14,2.55,0.02,3.83
	c-0.34,0.39-0.71,0.75-1.08,1.11c-20.87,20.92-41.74,41.84-62.63,62.73C58.63,153.89,57.58,154.51,57.01,154.95z"/>
</svg>
